HIERARCHY
ROOT hip
{
  OFFSET 0.00112043 5.09927 -9.65472
  CHANNELS 6 Xposition Yposition Zposition Zrotation Xrotation Yrotation
  JOINT abdomen
  {
    OFFSET 0 -1.186 -1.5018
    CHANNELS 3 Zrotation Xrotation Yrotation
    JOINT abdomen2
    {
      OFFSET 0 9.964 0.2134
      CHANNELS 3 Zrotation Xrotation Yrotation
      JOINT chest
      {
        OFFSET 0 13.134 -3.2573
        CHANNELS 3 Zrotation Xrotation Yrotation
        JOINT neck
        {
          OFFSET 0 20.686 -1.6905
          CHANNELS 3 Zrotation Xrotation Yrotation
          JOINT head
          {
            OFFSET 0 7.238 -0.1237
            CHANNELS 3 Zrotation Xrotation Yrotation
            End Site
            {
              OFFSET 0 0 0
            }
          }
        }
        JOINT lCollar
        {
          OFFSET 1.7069 20.075 5.0056
          CHANNELS 3 Zrotation Xrotation Yrotation
          JOINT lShldr
          {
            OFFSET 13.6458 -0.047 -4.849
            CHANNELS 3 Zrotation Xrotation Yrotation
            JOINT lForeArm
            {
              OFFSET 28.3255 -0.9759 2.2888
              CHANNELS 3 Zrotation Xrotation Yrotation
              JOINT lHand
              {
                OFFSET 22.1583 -0.53 10.8316
                CHANNELS 3 Zrotation Xrotation Yrotation
                JOINT lThumb1
                {
                  OFFSET 0.786 0.112 2.5817
                  CHANNELS 3 Zrotation Xrotation Yrotation
                  JOINT lThumb2
                  {
                    OFFSET 0.3601 -0.878 4.2331
                    CHANNELS 3 Zrotation Xrotation Yrotation
                    JOINT lThumb2_End
                    {
                      OFFSET 1.8127 -1.216 2.2227
                      CHANNELS 3 Zrotation Xrotation Yrotation
                      End Site
                      {
                        OFFSET 0.0181 -0.0122 0.0222
                      }
                    }
                  }
                }
                JOINT lCarpal1
                {
                  OFFSET 0.9571 1.114 1.7695
                  CHANNELS 3 Zrotation Xrotation Yrotation
                  JOINT lIndex1
                  {
                    OFFSET 4.1246 0.487 4.1451
                    CHANNELS 3 Zrotation Xrotation Yrotation
                    JOINT lIndex2
                    {
                      OFFSET 3.4052 -1.454 2.7682
                      CHANNELS 3 Zrotation Xrotation Yrotation
                      JOINT lIndex2_End
                      {
                        OFFSET 1.4531 -1.795 1.2713
                        CHANNELS 3 Zrotation Xrotation Yrotation
                        End Site
                        {
                          OFFSET 0.0145 -0.0179 0.0127
                        }
                      }
                    }
                  }
                  JOINT lMid1
                  {
                    OFFSET 5.6954 0.21 2.1184
                    CHANNELS 3 Zrotation Xrotation Yrotation
                    JOINT lMid2
                    {
                      OFFSET 3.9766 -1.54 2.3863
                      CHANNELS 3 Zrotation Xrotation Yrotation
                      JOINT lMid2_End
                      {
                        OFFSET 1.4042 -1.926 1.125
                        CHANNELS 3 Zrotation Xrotation Yrotation
                        End Site
                        {
                          OFFSET 0.014 -0.0193 0.0113
                        }
                      }
                    }
                  }
                }
                JOINT lCarpal2
                {
                  OFFSET 2.0956 0.66 -0.3894
                  CHANNELS 3 Zrotation Xrotation Yrotation
                  JOINT lRing1
                  {
                    OFFSET 5.0395 -0.09 2.4971
                    CHANNELS 3 Zrotation Xrotation Yrotation
                    JOINT lRing2
                    {
                      OFFSET 3.7921 -1.552 1.4806
                      CHANNELS 3 Zrotation Xrotation Yrotation
                      JOINT lRing2_End
                      {
                        OFFSET 1.4655 -1.808 0.9609
                        CHANNELS 3 Zrotation Xrotation Yrotation
                        End Site
                        {
                          OFFSET 0.0147 -0.0181 0.0096
                        }
                      }
                    }
                  }
                  JOINT lPinky1
                  {
                    OFFSET 4.9141 -1.269 0.3591
                    CHANNELS 3 Zrotation Xrotation Yrotation
                    JOINT lPinky2
                    {
                      OFFSET 3.1477 -1.685 0.8462
                      CHANNELS 3 Zrotation Xrotation Yrotation
                      JOINT lPinky2_End
                      {
                        OFFSET 0.8055 -1.585 0.7955
                        CHANNELS 3 Zrotation Xrotation Yrotation
                        End Site
                        {
                          OFFSET 0.0081 -0.0158 0.008
                        }
                      }
                    }
                  }
                }
              }
            }
          }
        }
        JOINT rCollar
        {
          OFFSET -1.7069 20.075 5.0056
          CHANNELS 3 Zrotation Xrotation Yrotation
          JOINT rShldr
          {
            OFFSET -13.6458 -0.047 -4.849
            CHANNELS 3 Zrotation Xrotation Yrotation
            JOINT rForeArm
            {
              OFFSET -28.3255 -0.9759 2.2888
              CHANNELS 3 Zrotation Xrotation Yrotation
              JOINT rHand
              {
                OFFSET -22.1583 -0.53 10.8316
                CHANNELS 3 Zrotation Xrotation Yrotation
                JOINT rThumb1
                {
                  OFFSET -0.786 0.112 2.5817
                  CHANNELS 3 Zrotation Xrotation Yrotation
                  JOINT rThumb2
                  {
                    OFFSET -0.3601 -0.878 4.2331
                    CHANNELS 3 Zrotation Xrotation Yrotation
                    JOINT rThumb2_End
                    {
                      OFFSET -1.8127 -1.216 2.2227
                      CHANNELS 3 Zrotation Xrotation Yrotation
                      End Site
                      {
                        OFFSET -0.0181 -0.0122 0.0222
                      }
                    }
                  }
                }
                JOINT rCarpal1
                {
                  OFFSET -0.9571 1.114 1.7695
                  CHANNELS 3 Zrotation Xrotation Yrotation
                  JOINT rIndex1
                  {
                    OFFSET -4.1246 0.487 4.1451
                    CHANNELS 3 Zrotation Xrotation Yrotation
                    JOINT rIndex2
                    {
                      OFFSET -3.4052 -1.454 2.7682
                      CHANNELS 3 Zrotation Xrotation Yrotation
                      JOINT rIndex2_End
                      {
                        OFFSET -1.4531 -1.795 1.2713
                        CHANNELS 3 Zrotation Xrotation Yrotation
                        End Site
                        {
                          OFFSET -0.0145 -0.018 0.0127
                        }
                      }
                    }
                  }
                  JOINT rMid1
                  {
                    OFFSET -5.6954 0.21 2.1184
                    CHANNELS 3 Zrotation Xrotation Yrotation
                    JOINT rMid2
                    {
                      OFFSET -3.9766 -1.54 2.3863
                      CHANNELS 3 Zrotation Xrotation Yrotation
                      JOINT rMid2_End
                      {
                        OFFSET -1.4042 -1.926 1.125
                        CHANNELS 3 Zrotation Xrotation Yrotation
                        End Site
                        {
                          OFFSET -0.014 -0.0193 0.0113
                        }
                      }
                    }
                  }
                }
                JOINT rCarpal2
                {
                  OFFSET -2.0956 0.66 -0.3894
                  CHANNELS 3 Zrotation Xrotation Yrotation
                  JOINT rRing1
                  {
                    OFFSET -5.0395 -0.09 2.4971
                    CHANNELS 3 Zrotation Xrotation Yrotation
                    JOINT rRing2
                    {
                      OFFSET -3.7921 -1.552 1.4806
                      CHANNELS 3 Zrotation Xrotation Yrotation
                      JOINT rRing2_End
                      {
                        OFFSET -1.4655 -1.808 0.9609
                        CHANNELS 3 Zrotation Xrotation Yrotation
                        End Site
                        {
                          OFFSET -0.0147 -0.0181 0.0096
                        }
                      }
                    }
                  }
                  JOINT rPinky1
                  {
                    OFFSET -4.9141 -1.269 0.3592
                    CHANNELS 3 Zrotation Xrotation Yrotation
                    JOINT rPinky2
                    {
                      OFFSET -3.1477 -1.685 0.8462
                      CHANNELS 3 Zrotation Xrotation Yrotation
                      JOINT rPinky2_End
                      {
                        OFFSET -0.8055 -1.585 0.7955
                        CHANNELS 3 Zrotation Xrotation Yrotation
                        End Site
                        {
                          OFFSET -0.0081 -0.0158 0.008
                        }
                      }
                    }
                  }
                }
              }
            }
          }
        }
      }
    }
  }
  JOINT lThigh
  {
    OFFSET 8.367 -8.2066 0.5982
    CHANNELS 3 Zrotation Xrotation Yrotation
    JOINT lShin
    {
      OFFSET 2.1923 -43.463 -0.4932
      CHANNELS 3 Zrotation Xrotation Yrotation
      JOINT lFoot
      {
        OFFSET 0.7333 -45.8593 -2.6451
        CHANNELS 3 Zrotation Xrotation Yrotation
        End Site
        {
          OFFSET 2.6618 -4.2699 12.3931
        }
      }
    }
  }
  JOINT rThigh
  {
    OFFSET -8.367 -8.2066 0.5982
    CHANNELS 3 Zrotation Xrotation Yrotation
    JOINT rShin
    {
      OFFSET -2.1923 -43.463 -0.4931
      CHANNELS 3 Zrotation Xrotation Yrotation
      JOINT rFoot
      {
        OFFSET -0.7333 -45.8593 -2.6451
        CHANNELS 3 Zrotation Xrotation Yrotation
        End Site
        {
          OFFSET -2.6618 -4.2699 12.3931
        }
      }
    }
  }
}
MOTION
Frames:	5
Frame Time:	0.0333333
0 91.7903 2.51682 0 0 -0 0 0 -0 0 0 -0 0 0 -0 0 0 -0 0 0 -0 0 0 -0 1.66051 0.0835086 5.75766 -0.0175111 0.895433 15.7816 7.95139e-016 -1.98785e-016 -0 5.46658e-016 -3.97569e-016 -0 5.96354e-016 0 -0 3.97569e-016 1.98785e-016 9.54166e-015 1.49089e-016 -3.97569e-016 -0 6.4605e-016 0 3.18055e-015 5.96354e-016 0 3.18055e-015 8.94531e-016 -1.98785e-016 6.36111e-015 6.4605e-016 0 3.18055e-015 5.96354e-016 0 3.18055e-015 8.94531e-016 -1.98785e-016 6.36111e-015 1.49089e-016 -3.97569e-016 -0 6.4605e-016 0 3.18055e-015 5.96354e-016 0 3.18055e-015 8.94531e-016 -1.98785e-016 6.36111e-015 6.4605e-016 0 3.18055e-015 5.96354e-016 0 3.18055e-015 8.94531e-016 -1.98785e-016 6.36111e-015 0 0 -0 -1.4496 0.0636048 -5.0245 -1.74811 1.20616 -16.8394 -1.19271e-015 1.98785e-016 -3.18055e-015 -3.97569e-016 1.98785e-016 -3.18055e-015 -2.98177e-016 1.98785e-016 -3.18055e-015 -2.98177e-016 3.97569e-016 -0 4.96962e-016 0 -6.36111e-015 -9.93923e-017 3.97569e-016 -0 -8.94531e-016 5.96354e-016 -0 -3.97569e-016 3.97569e-016 -0 -9.93923e-017 3.97569e-016 -0 -8.94531e-016 5.96354e-016 -0 -3.97569e-016 3.97569e-016 -0 4.96962e-016 0 -6.36111e-015 -9.93923e-017 3.97569e-016 -0 -8.94531e-016 5.96354e-016 -0 -3.97569e-016 3.97569e-016 -0 -9.93923e-017 3.97569e-016 -0 -8.94531e-016 5.96354e-016 -0 -3.97569e-016 3.97569e-016 -0 -4.66111 -0.998717 0.12318 0.00986924 1.54847 0.176523 4.65186 -0.572283 -0.254274 4.66111 -0.998765 -0.123176 -0.00986867 1.54869 -0.176537 -4.65186 -0.572453 0.25427 
-1.83806 68.4482 17.2159 0 0 -33.334 -0.0425926 4.46695 -0.0580878 -0.0809999 8.93394 -0.113324 -0.0809965 8.93395 -0.113353 -0.849597 1.53285 7.18478 0.000316792 -13.6928 0.0366655 9.196 -4.9926 6.08787 -9.39273 -1.39585 -9.49925 -8.55799 2.12147 -30.2912 4.1672 -25.8988 4.63645 7.95139e-016 3.97569e-016 3.18055e-015 -3.93076e-007 1.38773e-006 -2.39019e-007 -2.70595e-008 -6.60124e-007 3.85209e-007 7.95139e-016 7.95139e-016 3.18055e-015 7.95139e-016 -1.19271e-015 1.59028e-014 -3.93076e-007 1.38773e-006 -2.39019e-007 -2.70595e-008 -6.60124e-007 3.85209e-007 7.95139e-016 -1.19271e-015 1.59028e-014 -3.93076e-007 1.38773e-006 -2.39019e-007 -2.70595e-008 -6.60124e-007 3.85209e-007 7.95139e-016 7.95139e-016 3.18055e-015 7.95139e-016 -1.19271e-015 1.59028e-014 -3.93076e-007 1.38773e-006 -2.39019e-007 -2.70595e-008 -6.60124e-007 3.85209e-007 7.95139e-016 -1.19271e-015 1.59028e-014 -3.93076e-007 1.38773e-006 -2.39019e-007 -2.70595e-008 -6.60124e-007 3.85209e-007 3.64963 -20.5822 -19.3389 30.9848 7.17728 1.31031 11.9998 -22.8307 29.3754 11.2122 -15.3181 -7.16614 -1.26084e-006 2.24533e-006 4.17228e-008 2.6769e-006 1.06808e-006 -1.5266e-006 -9.54166e-015 -1.27222e-014 9.54166e-015 0 0 -9.54166e-015 -1.26084e-006 2.24533e-006 4.17228e-008 2.6769e-006 1.06808e-006 -1.5266e-006 -9.54166e-015 -6.36111e-015 -0 -1.26084e-006 2.24533e-006 4.17228e-008 2.6769e-006 1.06808e-006 -1.5266e-006 -9.54166e-015 -6.36111e-015 -0 0 0 -9.54166e-015 -1.26084e-006 2.24533e-006 4.17228e-008 2.6769e-006 1.06808e-006 -1.5266e-006 -9.54166e-015 -6.36111e-015 -0 -1.26084e-006 2.24533e-006 4.17228e-008 2.6769e-006 1.06808e-006 -1.5266e-006 -9.54166e-015 -6.36111e-015 -0 -1.48781 -22.3113 -0.513398 3.30207 53.1984 -3.55616 4.73907 21.1417 -2.54067 2.92407 -22.5839 -0.723879 -3.30089 53.468 3.53425 -5.32879 21.2154 0.582029 
-3.26384 44.0791 30.4565 0 0 -66.6681 -0.0715779 8.93371 -0.125797 -0.125343 17.8675 -0.244679 -0.125346 17.8675 -0.244695 -2.08009 2.99351 14.3845 0.0201763 -27.3857 0.0802447 19.4592 -9.81511 12.3123 -21.0887 -2.62702 -24.7814 -17.0974 -0.168165 -76.0719 11.4721 -52.648 8.03158 6.32488e-007 -2.72462e-007 -5.0061e-007 6.32488e-007 -2.72462e-007 -5.0061e-007 6.32488e-007 -2.72462e-007 -5.0061e-007 -3.31043e-032 1.59028e-015 1.19271e-015 6.32488e-007 -2.72462e-007 -5.0061e-007 6.32488e-007 -2.72462e-007 -5.0061e-007 6.32488e-007 -2.72462e-007 -5.0061e-007 6.32488e-007 -2.72462e-007 -5.0061e-007 6.32488e-007 -2.72462e-007 -5.0061e-007 6.32488e-007 -2.72462e-007 -5.0061e-007 -3.31043e-032 1.59028e-015 1.19271e-015 6.32488e-007 -2.72462e-007 -5.0061e-007 6.32488e-007 -2.72462e-007 -5.0061e-007 6.32488e-007 -2.72462e-007 -5.0061e-007 6.32488e-007 -2.72462e-007 -5.0061e-007 6.32488e-007 -2.72462e-007 -5.0061e-007 6.32488e-007 -2.72462e-007 -5.0061e-007 -7.77333 -33.7136 -45.1266 61.8216 14.0304 7.93564 41.6664 -3.78972 69.6803 17.8966 -31.5934 -14.5227 3.18055e-015 3.18055e-015 -3.18055e-015 6.36111e-015 -3.18055e-015 -3.18055e-015 6.36111e-015 3.18055e-015 1.11319e-014 3.18055e-015 0 -3.18055e-015 1.59028e-014 9.54166e-015 1.59028e-014 -3.18055e-015 3.18055e-015 -6.36111e-015 -2.64834e-031 3.18055e-015 4.77083e-015 1.59028e-014 9.54166e-015 1.59028e-014 -3.18055e-015 3.18055e-015 -6.36111e-015 -2.64834e-031 3.18055e-015 4.77083e-015 3.18055e-015 0 -3.18055e-015 1.59028e-014 9.54166e-015 1.59028e-014 -3.18055e-015 3.18055e-015 -6.36111e-015 -2.64834e-031 3.18055e-015 4.77083e-015 1.59028e-014 9.54166e-015 1.59028e-014 -3.18055e-015 3.18055e-015 -6.36111e-015 -2.64834e-031 3.18055e-015 4.77083e-015 -1.34421 -45.0789 -0.99768 154.927 72.4236 -151.11 6.3883 43.4394 -5.04171 2.86878 -45.6894 -2.24955 -155.723 71.9793 151.831 -5.91366 43.6663 0.28071 
-3.35957 26.8476 39.2839 -1.40334e-014 2.29846e-019 -90.0019 -0.0779756 12.0603 -0.183374 -0.119532 24.1207 -0.362047 -0.119539 24.1207 -0.362026 -3.00766 3.98212 19.209 -2.47886e-006 -37.0045 -2.21119e-006 27.2462 -12.9682 16.9071 -29.5942 -3.21773 -35.4992 -25.2911 -3.37447 -107.885 19.8311 -71.643 11.8674 1.32417e-030 9.54166e-015 -7.95139e-015 1.05686e-006 -1.76941e-006 -3.76075e-006 -3.18055e-015 -6.36111e-015 -1.59028e-015 3.18055e-015 4.77083e-015 -4.77083e-015 -9.54166e-015 7.95139e-015 -1.59028e-015 1.05686e-006 -1.76941e-006 -3.76075e-006 -3.18055e-015 -6.36111e-015 -1.59028e-015 -9.54166e-015 7.95139e-015 -1.59028e-015 1.05686e-006 -1.76941e-006 -3.76075e-006 -3.18055e-015 -6.36111e-015 -1.59028e-015 3.18055e-015 4.77083e-015 -4.77083e-015 -9.54166e-015 7.95139e-015 -1.59028e-015 1.05686e-006 -1.76941e-006 -3.76075e-006 -3.18055e-015 -6.36111e-015 -1.59028e-015 -9.54166e-015 7.95139e-015 -1.59028e-015 1.05686e-006 -1.76941e-006 -3.76075e-006 -3.18055e-015 -6.36111e-015 -1.59028e-015 -22.0557 -34.2496 -65.3894 82.4376 18.5589 12.9 54.1511 26.2108 74.4647 18.9825 -43.0582 -21.0359 3.86807e-007 1.48614e-007 1.02359e-007 -8.18874e-007 -5.58971e-008 3.09446e-006 3.18055e-015 -3.18055e-015 -6.36111e-015 0 0 -0 3.86807e-007 1.48614e-007 1.02359e-007 -8.18874e-007 -5.58971e-008 3.09446e-006 3.53113e-031 3.18055e-015 -6.36111e-015 3.86807e-007 1.48614e-007 1.02359e-007 -8.18874e-007 -5.58971e-008 3.09446e-006 3.53113e-031 3.18055e-015 -6.36111e-015 0 0 -0 3.86807e-007 1.48614e-007 1.02359e-007 -8.18874e-007 -5.58971e-008 3.09446e-006 3.53113e-031 3.18055e-015 -6.36111e-015 3.86807e-007 1.48614e-007 1.02359e-007 -8.18874e-007 -5.58971e-008 3.09446e-006 3.53113e-031 3.18055e-015 -6.36111e-015 -7.89689 -64.3923 -0.704983 168.891 35.8559 -156.412 5.72523 62.8993 -3.86015 6.7108 -65.5996 -6.57454 -169.053 35.214 156.189 -1.85393 63.2257 -5.29731 
-3.1655 21.9977 41.8356 -1.39859e-014 8.14836e-016 -96.6687 -0.0675566 12.9536 -0.207978 -0.0889258 25.9073 -0.416472 -0.0889194 25.9073 -0.416471 -2.94174 4.36542 20.0428 -0.149692 -39.8327 -0.324731 29.4852 -13.7593 18.461 -32.0626 -3.33405 -38.5636 -28.1307 -4.30488 -116.972 23.4492 -77.1965 14.0354 1.31072e-006 -9.90453e-007 -9.42339e-008 6.28185e-006 6.19678e-007 2.67744e-006 -1.3023e-006 -3.98428e-007 2.85856e-006 -6.36111e-015 3.18055e-015 -3.18055e-015 1.31072e-006 -9.90453e-007 -9.42339e-008 6.28185e-006 6.19678e-007 2.67744e-006 -1.3023e-006 -3.98428e-007 2.85856e-006 1.31072e-006 -9.90453e-007 -9.42339e-008 6.28185e-006 6.19678e-007 2.67744e-006 -1.3023e-006 -3.98428e-007 2.85856e-006 -6.36111e-015 3.18055e-015 -3.18055e-015 1.31072e-006 -9.90453e-007 -9.42339e-008 6.28185e-006 6.19678e-007 2.67744e-006 -1.3023e-006 -3.98428e-007 2.85856e-006 1.31072e-006 -9.90453e-007 -9.42339e-008 6.28185e-006 6.19678e-007 2.67744e-006 -1.3023e-006 -3.98428e-007 2.85856e-006 -26.1039 -33.0043 -70.4711 88.2152 19.8716 14.3974 58.3282 35.3137 71.6478 18.2526 -46.1788 -23.4366 -3.18055e-015 -1.59028e-015 -0 0 0 -6.36111e-015 -1.76556e-031 1.59028e-015 6.36111e-015 -0 -1.59028e-015 -0 -7.94503e-031 4.77083e-015 9.54166e-015 3.18055e-015 -1.59028e-015 3.18055e-015 -6.36111e-015 -4.77083e-015 -6.36111e-015 -7.94503e-031 4.77083e-015 9.54166e-015 3.18055e-015 -1.59028e-015 3.18055e-015 -6.36111e-015 -4.77083e-015 -6.36111e-015 -0 -1.59028e-015 -0 -7.94503e-031 4.77083e-015 9.54166e-015 3.18055e-015 -1.59028e-015 3.18055e-015 -6.36111e-015 -4.77083e-015 -6.36111e-015 -7.94503e-031 4.77083e-015 9.54166e-015 3.18055e-015 -1.59028e-015 3.18055e-015 -6.36111e-015 -4.77083e-015 -6.36111e-015 -16.4113 -72.5536 -1.93445 170.229 25.0633 -151.852 0.105706 71.4846 2.45931 11.7939 -74.3683 -9.35461 -170.33 24.3543 151.159 7.08323 71.6151 -15.332 
